<?xml version="1.0" encoding="UTF-8"?>
<svg width="700pt" height="700pt" version="1.1" viewBox="0 0 700 700" xmlns="http://www.w3.org/2000/svg">
 <path d="m349.95 42c-0.24609 0.011719-0.49219 0.03125-0.73828 0.054688-0.32812 0.003906-0.65625 0.023437-0.98438 0.050781-0.40625 0.066406-0.80469 0.14844-1.2031 0.25-0.25781 0.046875-0.51172 0.10156-0.76562 0.16406-0.23828 0.066407-0.47656 0.13672-0.71094 0.21875-0.4375 0.14062-0.86328 0.30469-1.2852 0.49219-0.13672 0.070312-0.27344 0.14062-0.41016 0.21484-0.39062 0.19141-0.77344 0.40234-1.1484 0.62891-0.23047 0.14062-0.46094 0.28516-0.68359 0.4375-0.28906 0.19922-0.57422 0.41016-0.84766 0.63281-0.26172 0.21484-0.51953 0.44531-0.76562 0.68359-0.22656 0.21875-0.44531 0.44531-0.65625 0.68359-0.20703 0.21094-0.41016 0.42969-0.60156 0.65625-0.19141 0.23828-0.375 0.48438-0.54688 0.73438-0.20312 0.27734-0.39453 0.55859-0.57422 0.84766-0.14453 0.26172-0.28125 0.52734-0.41016 0.79688-0.19141 0.35547-0.36328 0.71875-0.51953 1.0938-0.011718 0.007813-0.019531 0.015625-0.027343 0.027344-0.019531 0.054687-0.039063 0.10938-0.058594 0.16406-0.1875 0.46484-0.35156 0.9375-0.49219 1.4219-0.13672 0.49219-0.24609 0.99609-0.32813 1.5039-0.019531 0.10938-0.039062 0.21875-0.054687 0.32813-0.09375 0.65234-0.14062 1.3086-0.14062 1.9688v91.41l-207.92 91c-5.0898 2.2227-8.3828 7.2422-8.3945 12.797v41.043c0.03125 7.7305 6.3242 13.973 14.055 13.945h7.1367v183.75h-7.1367c-3.7305-0.015625-7.3164 1.4609-9.9531 4.0977-2.6406 2.6406-4.1172 6.2227-4.1016 9.957 0.015625 3.7109 1.5039 7.2656 4.1406 9.8828 2.6328 2.6133 6.1992 4.0742 9.9141 4.0625h432.52c7.7305 0.027344 14.023-6.2109 14.055-13.945 0.015625-3.7305-1.4609-7.3125-4.1016-9.9531-2.6367-2.6367-6.2227-4.1133-9.9531-4.1016h-7.1367v-183.75h7.1367c7.7305 0.027344 14.023-6.2148 14.055-13.949v-41.039c-0.007812-5.5469-3.2891-10.566-8.3672-12.801l-207.95-91v-19.082h73.582c3.7305 0.011719 7.3164-1.4648 9.9531-4.1016 2.6406-2.6406 4.1172-6.2227 4.1016-9.9531v-58.273c0.015625-3.7305-1.4609-7.3125-4.1016-9.9531-2.6367-2.6367-6.2227-4.1133-9.9531-4.1016zm14.055 28h59.637v30.379h-59.637zm-14.055 101.99 202.37 88.484v17.773h-404.61v-17.773zm-0.79297 22.75c-19.027 0.49219-34.645 16.305-34.645 35.438 0 19.438 16.109 35.547 35.547 35.547s35.438-16.109 35.438-35.547-16-35.438-35.438-35.438c-0.30469 0-0.60156-0.007813-0.90234 0zm0.49219 28c0.125-0.007813 0.27734 0 0.41016 0 4.2969 0 7.4375 3.125 7.4375 7.4375s-3.1406 7.5469-7.4375 7.5469-7.5469-3.2344-7.5469-7.5469c0-4.1758 3.0391-7.25 7.1367-7.4375zm-180.77 83.508h362.25v183.75h-25.43v-119.36c0-20.852-16.82-38.555-37.734-38.555s-37.598 17.703-37.598 38.555v119.36h-42.684v-119.36c0-20.852-16.711-38.555-37.625-38.555s-37.734 17.703-37.734 38.555v119.36h-42.656v-119.36c0-20.852-16.711-38.555-37.625-38.555s-37.734 17.703-37.734 38.555v119.36h-25.43zm63.164 53.84c5.3125 0 9.707 4.1953 9.707 10.555v119.36h-19.441v-119.36c0-6.3594 4.4219-10.555 9.7344-10.555zm118.02 0c5.3125 0 9.5977 4.1953 9.5977 10.555v119.36h-19.305v-119.36c0-6.3594 4.3945-10.555 9.707-10.555zm117.91 0c5.3125 0 9.7344 4.1953 9.7344 10.555v119.36h-19.441v-119.36c0-6.3594 4.3945-10.555 9.707-10.555z"/>
</svg>
